<svg width="160" height="160" viewBox="0 0 160 160" fill="none" xmlns="http://www.w3.org/2000/svg">
  <defs>
    <linearGradient id="g1" x1="23" y1="20" x2="136" y2="140" gradientUnits="userSpaceOnUse">
      <stop stop-color="#55E7FF"/>
      <stop offset="0.55" stop-color="#CFFF34"/>
      <stop offset="1" stop-color="#FFC73D"/>
    </linearGradient>
    <filter id="glow" x="-40%" y="-40%" width="180%" height="180%">
      <feGaussianBlur stdDeviation="4" result="blur"/>
      <feMerge><feMergeNode in="blur"/><feMergeNode in="SourceGraphic"/></feMerge>
    </filter>
  </defs>
  <circle cx="80" cy="80" r="72" fill="#071831" stroke="url(#g1)" stroke-width="4"/>
  <path d="M53 70V53C53 35.9 66.9 22 84 22C101.1 22 115 35.9 115 53V70" stroke="url(#g1)" stroke-width="10" stroke-linecap="round"/>
  <rect x="39" y="66" width="88" height="71" rx="17" fill="#092448" stroke="url(#g1)" stroke-width="5"/>
  <path d="M84 87C75.7 87 69 93.7 69 102C69 107.8 72.3 112.9 77 115.4V126H91V115.4C95.7 112.9 99 107.8 99 102C99 93.7 92.3 87 84 87Z" fill="url(#g1)" filter="url(#glow)"/>
  <path d="M113 26L135 48" stroke="#55E7FF" stroke-width="6" stroke-linecap="round"/>
  <path d="M120 20L141 41" stroke="#FFC73D" stroke-width="3" stroke-linecap="round"/>
</svg>
